<svg xmlns="http://www.w3.org/2000/svg" width="20.488" height="23.414" viewBox="0 0 20.488 23.414">
  <path id="bag" d="M21.274,8.94H18.348V8.7c0-3.581-2.515-6.455-5.648-6.455h-.366C9.2,2.25,6.64,5.124,6.64,8.7V8.94H3.713L2.25,25.664H22.738ZM8.1,8.7a4.538,4.538,0,0,1,4.23-4.782H12.7c2.319,0,4.185,2.133,4.185,4.782V8.94H8.1ZM3.887,23.992l1.139-13.38H6.64v1.9a1.722,1.722,0,0,0-.732,1.448A1.576,1.576,0,0,0,7.372,15.63a1.576,1.576,0,0,0,1.463-1.672A1.722,1.722,0,0,0,8.1,12.509v-1.9h8.78v1.9a1.722,1.722,0,0,0-.732,1.448,1.576,1.576,0,0,0,1.463,1.672,1.576,1.576,0,0,0,1.463-1.672,1.722,1.722,0,0,0-.732-1.448v-1.9h1.619l1.139,13.38Z" transform="translate(-2.25 -2.25)"/>
</svg>
