<svg xmlns="http://www.w3.org/2000/svg" width="14.227" height="12.804" viewBox="0 0 14.227 12.804">
  <path id="bxs-city" d="M16.515,5.845H13.67V3.711A.711.711,0,0,0,12.959,3H7.268a.711.711,0,0,0-.711.711V8.691H3.711A.711.711,0,0,0,3,9.4v5.691a.711.711,0,0,0,.711.711h12.8a.711.711,0,0,0,.711-.711V6.557A.711.711,0,0,0,16.515,5.845ZM5.845,14.381H4.423V12.959H5.845Zm0-2.845H4.423V10.113H5.845ZM9.4,14.381H7.979V12.959H9.4Zm0-2.845H7.979V10.113H9.4Zm0-2.845H7.979V7.268H9.4Zm0-2.845H7.979V4.423H9.4Zm2.845,8.536H10.825V12.959h1.423Zm0-2.845H10.825V10.113h1.423Zm0-2.845H10.825V7.268h1.423Zm0-2.845H10.825V4.423h1.423ZM15.8,14.381H14.381V12.959H15.8Zm0-2.845H14.381V10.113H15.8Zm0-2.845H14.381V7.268H15.8Z" transform="translate(-3 -3)" fill="#232323"/>
</svg>
