<svg id="check-circle" xmlns="http://www.w3.org/2000/svg" width="36" height="36" viewBox="0 0 36 36">
  <path id="Path_13" data-name="Path 13" d="M18,33.75A15.75,15.75,0,1,0,2.25,18,15.75,15.75,0,0,0,18,33.75ZM18,36A18,18,0,1,0,0,18,18,18,0,0,0,18,36Z" fill="#fff" fill-rule="evenodd"/>
  <path id="Path_14" data-name="Path 14" d="M24.683,11.182a1.688,1.688,0,1,1,2.41,2.363L18.111,24.773a1.688,1.688,0,0,1-2.43.045L9.729,18.864a1.688,1.688,0,1,1,2.385-2.385l4.712,4.709,7.814-9.956a.531.531,0,0,1,.045-.049Z" fill="#fff" fill-rule="evenodd"/>
</svg>
