<svg xmlns="http://www.w3.org/2000/svg" width="54.092" height="42.406" viewBox="0 0 54.092 42.406">
  <path id="delivery-truck" d="M56.188,27.247l-5.8-13.523a1.932,1.932,0,0,0-1.777-1.178h-5.8V8.682A1.932,1.932,0,0,0,40.887,6.75H4.182A1.932,1.932,0,0,0,2.25,8.682V41.523a1.932,1.932,0,0,0,1.932,1.932H8.317a7.727,7.727,0,0,0,14.914,0H35.363a7.727,7.727,0,0,0,14.914,0H54.41a1.932,1.932,0,0,0,1.932-1.932V28a1.932,1.932,0,0,0-.155-.754ZM42.819,16.409h4.52l4.135,9.659H42.819ZM15.773,45.387a3.864,3.864,0,1,1,3.864-3.864A3.864,3.864,0,0,1,15.773,45.387Zm19.59-5.8H23.231a7.727,7.727,0,0,0-14.914,0h-2.2V10.614H38.955V34.878a7.727,7.727,0,0,0-3.594,4.714Zm7.456,5.8a3.864,3.864,0,1,1,3.864-3.864A3.864,3.864,0,0,1,42.819,45.387Zm9.659-5.8h-2.2a7.727,7.727,0,0,0-7.458-5.8V29.932h9.659Z" transform="translate(-2.25 -6.75)"/>
</svg>
