<svg xmlns="http://www.w3.org/2000/svg" width="7.221" height="12.838" viewBox="0 0 7.221 12.838">
  <path id="facebook" d="M6.419,5.616a.782.782,0,0,1,.564.232.765.765,0,0,1,.238.571v.8a.766.766,0,0,1-.238.571.78.78,0,0,1-.564.232H4.012v4.012a.814.814,0,0,1-.8.8h-.8a.766.766,0,0,1-.571-.238.78.78,0,0,1-.232-.564V8.023H.8a.776.776,0,0,1-.571-.232A.774.774,0,0,1,0,7.221v-.8a.776.776,0,0,1,.232-.571A.774.774,0,0,1,.8,5.616h.8V3.209A3.091,3.091,0,0,1,2.545.94,3.094,3.094,0,0,1,4.814,0h1.6a.776.776,0,0,1,.571.232A.774.774,0,0,1,7.221.8v.8a.792.792,0,0,1-.8.8h-1.6a.792.792,0,0,0-.8.8V5.616Z" fill="#ed3237"/>
</svg>
