<svg xmlns="http://www.w3.org/2000/svg" width="12.822" height="12.822" viewBox="0 0 12.822 12.822">
  <path id="headphonesalt" d="M11.219,10.418h-1.2a.406.406,0,0,1-.4-.4V6.01a.406.406,0,0,1,.4-.4h.4a4.057,4.057,0,0,0-1.033-2.93A3.928,3.928,0,0,0,6.411,1.6,3.931,3.931,0,0,0,3.437,2.679,4.055,4.055,0,0,0,2.4,5.609h.4a.406.406,0,0,1,.4.4v4.007a.406.406,0,0,1-.4.4H2.4a1.6,1.6,0,0,0,1.6,1.6h.8a.791.791,0,0,1,.8-.8h.8a.775.775,0,0,1,.57.232.765.765,0,0,1,.232.563.79.79,0,0,1-.232.57.763.763,0,0,1-.57.238h-2.4a2.318,2.318,0,0,1-1.7-.7,2.32,2.32,0,0,1-.7-1.7,1.353,1.353,0,0,1-1.133-.7A2.987,2.987,0,0,1,0,8.014a3.225,3.225,0,0,1,.219-1.2A2.174,2.174,0,0,1,.8,5.947V5.609a5.484,5.484,0,0,1,.444-2.179A5.51,5.51,0,0,1,4.232.444a5.562,5.562,0,0,1,4.358,0,5.652,5.652,0,0,1,1.791,1.2,5.613,5.613,0,0,1,1.2,1.79,5.5,5.5,0,0,1,.444,2.179v.338a2.174,2.174,0,0,1,.582.864,3.225,3.225,0,0,1,.219,1.2,2.99,2.99,0,0,1-.469,1.7A1.353,1.353,0,0,1,11.219,10.418Z" fill="#ed3237"/>
</svg>
