<svg xmlns="http://www.w3.org/2000/svg" width="14.21" height="18.947" viewBox="0 0 14.21 18.947">
  <g id="id-badge-solid" transform="translate(-6 -2)">
    <path id="Path_593" data-name="Path 593" d="M18.779,16.045a2.5,2.5,0,1,1-2.5-2.5A2.5,2.5,0,0,1,18.779,16.045Z" transform="translate(-3.169 -4.707)" fill="#232323"/>
    <path id="Path_594" data-name="Path 594" d="M18.553,3.184A1.184,1.184,0,0,0,17.368,2H16.184A1.184,1.184,0,0,0,15,3.184V6.737h3.553Z" transform="translate(-3.671)" fill="#232323"/>
    <path id="Path_595" data-name="Path 595" d="M10.154,25.647a.669.669,0,0,0-.154.432v1.344h9.474V26.061a.663.663,0,0,0-.154-.432,5.862,5.862,0,0,0-4.583-1.942A5.862,5.862,0,0,0,10.154,25.647Z" transform="translate(-1.632 -8.844)" fill="#232323"/>
    <path id="Path_596" data-name="Path 596" d="M19.026,6H16.066V7.184h2.961v14.21H7.184V7.184h2.961V6H7.184A1.184,1.184,0,0,0,6,7.184v14.21a1.184,1.184,0,0,0,1.184,1.184H19.026a1.184,1.184,0,0,0,1.184-1.184V7.184A1.184,1.184,0,0,0,19.026,6Z" transform="translate(0 -1.632)" fill="#232323"/>
  </g>
</svg>
