<svg xmlns="http://www.w3.org/2000/svg" width="14.21" height="14.209" viewBox="0 0 14.21 14.209">
  <path id="location-arrow" d="M14.141.939,7.682,13.855a.592.592,0,0,1-.575.353.854.854,0,0,1-.152-.02.609.609,0,0,1-.358-.227.634.634,0,0,1-.136-.4V7.75H.649a.636.636,0,0,1-.4-.136.609.609,0,0,1-.227-.358.654.654,0,0,1,.04-.424.608.608,0,0,1,.292-.3L13.273.071A.606.606,0,0,1,13.566,0a.6.6,0,0,1,.454.192.6.6,0,0,1,.187.348A.615.615,0,0,1,14.141.939Z" transform="translate(-0.005)" fill="#232323"/>
</svg>
