<svg xmlns="http://www.w3.org/2000/svg" width="14.21" height="11.003" viewBox="0 0 14.21 11.003">
  <g id="mail" transform="translate(-4.14 -7.268)">
    <path id="Path_589" data-name="Path 589" d="M17.879,7.268H4.612a.472.472,0,0,0-.472.472V8.69a.161.161,0,0,0,.086.114L11.2,12.787a.118.118,0,0,0,.118,0l6.763-3.979c.038-.021.139-.077.177-.1s.093-.059.093-.115V7.74a.472.472,0,0,0-.472-.472Z" transform="translate(0)" fill="#232323"/>
    <path id="Path_590" data-name="Path 590" d="M27.938,12.818a.119.119,0,0,0-.119,0L23.992,15.07a.117.117,0,0,0-.027.182l3.827,4.126a.118.118,0,0,0,.2-.08V12.92a.118.118,0,0,0-.059-.1Z" transform="translate(-9.647 -2.697)" fill="#232323"/>
    <path id="Path_591" data-name="Path 591" d="M13.411,18.665a.117.117,0,0,0-.146-.022l-1.534.9a.6.6,0,0,1-.592,0l-1.35-.771a.118.118,0,0,0-.138.016L4.524,23.549a.118.118,0,0,0,.021.188.46.46,0,0,0,.235.069H17.911a.118.118,0,0,0,.087-.2Z" transform="translate(-0.169 -5.536)" fill="#232323"/>
    <path id="Path_592" data-name="Path 592" d="M8.354,15.481a.118.118,0,0,0-.021-.189L4.316,13a.118.118,0,0,0-.176.1v6.02a.117.117,0,0,0,.2.086l4.016-3.726Z" transform="translate(0 -2.785)" fill="#232323"/>
  </g>
</svg>
