<svg id="mastercard" xmlns="http://www.w3.org/2000/svg" width="58.781" height="35.268" viewBox="0 0 58.781 35.268">
  <path id="Path_51" data-name="Path 51" d="M236.868,118.434a17.634,17.634,0,0,1-35.268,0h0a17.634,17.634,0,1,1,35.268,0Z" transform="translate(-178.088 -100.8)" fill="#ffb600"/>
  <path id="Path_52" data-name="Path 52" d="M219.234,100.8a17.68,17.68,0,0,1,17.634,17.634h0a17.634,17.634,0,0,1-35.268,0" transform="translate(-178.088 -100.8)" fill="#f7981d"/>
  <path id="Path_53" data-name="Path 53" d="M352.8,100.8a17.68,17.68,0,0,1,17.634,17.634h0A17.62,17.62,0,0,1,352.8,136.068" transform="translate(-311.654 -100.8)" fill="#ff8500"/>
  <path id="Path_54" data-name="Path 54" d="M17.448,100.8a17.635,17.635,0,0,0,.187,35.268A17.84,17.84,0,0,0,29.484,131.5h0a16.769,16.769,0,0,0,1.773-1.866H27.618a21.53,21.53,0,0,1-1.306-1.773h6.251a11.952,11.952,0,0,0,1.026-1.866h-8.3a11.119,11.119,0,0,1-.746-1.866h9.7a18.526,18.526,0,0,0,.933-5.6A24.083,24.083,0,0,0,34.8,114.8H23.979a13.641,13.641,0,0,1,.467-1.866h9.7a11.122,11.122,0,0,0-.746-1.866H25.192a18.5,18.5,0,0,1,1.026-1.866h6.251a8.873,8.873,0,0,0-1.4-1.866H27.618a15.905,15.905,0,0,1,1.773-1.773,17.217,17.217,0,0,0-11.849-4.572C17.541,100.8,17.541,100.8,17.448,100.8Z" transform="translate(0 -100.8)" fill="#ff5050"/>
  <path id="Path_55" data-name="Path 55" d="M0,119.848a17.62,17.62,0,0,0,17.634,17.634,17.84,17.84,0,0,0,11.849-4.572h0a16.769,16.769,0,0,0,1.773-1.866H27.618a21.524,21.524,0,0,1-1.306-1.773h6.251a11.952,11.952,0,0,0,1.026-1.866h-8.3a11.12,11.12,0,0,1-.746-1.866h9.7a18.527,18.527,0,0,0,.933-5.6,24.083,24.083,0,0,0-.373-3.732H23.979a13.641,13.641,0,0,1,.467-1.866h9.7a11.12,11.12,0,0,0-.746-1.866H25.192a18.5,18.5,0,0,1,1.026-1.866h6.251a8.872,8.872,0,0,0-1.4-1.866H27.618a15.9,15.9,0,0,1,1.773-1.773A17.217,17.217,0,0,0,17.541,102.4h-.093" transform="translate(0 -102.213)" fill="#e52836"/>
  <path id="Path_56" data-name="Path 56" d="M149.787,137.482a17.84,17.84,0,0,0,11.849-4.572h0a16.771,16.771,0,0,0,1.773-1.866H159.77a21.527,21.527,0,0,1-1.306-1.773h6.251a11.953,11.953,0,0,0,1.026-1.866h-8.3a11.122,11.122,0,0,1-.746-1.866h9.7a18.527,18.527,0,0,0,.933-5.6,24.084,24.084,0,0,0-.373-3.732H156.131a13.637,13.637,0,0,1,.467-1.866h9.7a11.118,11.118,0,0,0-.746-1.866h-8.211a18.5,18.5,0,0,1,1.026-1.866h6.251a8.873,8.873,0,0,0-1.4-1.866H159.77a15.9,15.9,0,0,1,1.773-1.773,17.217,17.217,0,0,0-11.849-4.572H149.6" transform="translate(-132.152 -102.213)" fill="#cb2026"/>
  <g id="Group_7" data-name="Group 7" transform="translate(1.679 13.062)">
    <path id="Path_57" data-name="Path 57" d="M184.306,228.211l.28-1.586a4.039,4.039,0,0,1-.467.093c-.653,0-.746-.373-.653-.56l.56-3.266h1.026l.28-1.773H184.4l.187-1.12H182.72s-1.12,6.158-1.12,6.9a1.4,1.4,0,0,0,1.493,1.586A2.865,2.865,0,0,0,184.306,228.211Z" transform="translate(-162.1 -219.16)" fill="#fff"/>
    <path id="Path_58" data-name="Path 58" d="M210.4,232.909a2.968,2.968,0,0,0,3.266,3.266,4.844,4.844,0,0,0,1.959-.28l.373-1.773a5.593,5.593,0,0,1-1.959.467c-2.053,0-1.679-1.493-1.679-1.493h3.825a12.1,12.1,0,0,0,.28-1.679,2.528,2.528,0,0,0-2.706-2.706C211.8,228.524,210.4,230.577,210.4,232.909Zm3.266-2.706c1.026,0,.84,1.213.84,1.306h-2.053C212.453,231.416,212.639,230.2,213.666,230.2Z" transform="translate(-187.541 -226.844)" fill="#fff"/>
    <path id="Path_59" data-name="Path 59" d="M301.132,221.85l.373-2.053a4.586,4.586,0,0,1-1.586.467c-1.306,0-1.866-1.026-1.866-2.146,0-2.239,1.12-3.452,2.426-3.452a3.116,3.116,0,0,1,1.679.56l.28-1.959a6.56,6.56,0,0,0-2.146-.466c-2.146,0-4.292,1.866-4.292,5.412,0,2.333,1.12,3.919,3.359,3.919A8.372,8.372,0,0,0,301.132,221.85Z" transform="translate(-263.158 -212.8)" fill="#fff"/>
    <path id="Path_60" data-name="Path 60" d="M89.945,227.2a6.608,6.608,0,0,0-2.239.373l-.28,1.586a5.516,5.516,0,0,1,2.053-.373c.653,0,1.213.093,1.213.653,0,.373-.093.466-.093.466h-.84c-1.586,0-3.359.653-3.359,2.8,0,1.679,1.12,2.053,1.773,2.053a2.8,2.8,0,0,0,1.959-.84l-.093.746h1.679l.746-5.132A2.211,2.211,0,0,0,89.945,227.2Zm.373,4.2c0,.28-.187,1.773-1.306,1.773a.728.728,0,0,1-.746-.746c0-.467.28-1.12,1.679-1.12A1.471,1.471,0,0,0,90.319,231.4Z" transform="translate(-78.003 -225.521)" fill="#fff"/>
    <path id="Path_61" data-name="Path 61" d="M137.346,234.051c.466,0,2.8.093,2.8-2.426,0-2.333-2.239-1.866-2.239-2.8,0-.466.373-.653,1.026-.653.28,0,1.306.093,1.306.093l.28-1.679a7.086,7.086,0,0,0-1.773-.187c-1.4,0-2.8.56-2.8,2.426,0,2.146,2.333,1.959,2.333,2.8,0,.56-.653.653-1.12.653a6.1,6.1,0,0,1-1.679-.28l-.28,1.679C135.293,233.864,135.76,234.051,137.346,234.051Z" transform="translate(-121.111 -224.814)" fill="#fff"/>
    <path id="Path_62" data-name="Path 62" d="M432.518,214.4l-.373,2.519a2.587,2.587,0,0,0-1.773-.933c-1.679,0-3.172,2.053-3.172,4.479,0,1.493.746,3.079,2.333,3.079a2.491,2.491,0,0,0,1.773-.746l-.093.653h1.866l1.4-8.957Zm-.84,4.945c0,1.026-.467,2.333-1.493,2.333-.653,0-1.026-.56-1.026-1.493,0-1.493.653-2.426,1.493-2.426C431.305,217.759,431.678,218.225,431.678,219.345Z" transform="translate(-379.056 -214.213)" fill="#fff"/>
    <path id="Path_63" data-name="Path 63" d="M16.173,223.357l1.12-6.718.187,6.718h1.306l2.426-6.718-1.026,6.718h1.959l1.493-8.957H20.558l-1.866,5.5-.093-5.5H15.893L14.4,223.357Z" transform="translate(-14.4 -214.213)" fill="#fff"/>
    <path id="Path_64" data-name="Path 64" d="M262.053,236.078c.56-3.079.653-5.6,1.959-5.132a7.322,7.322,0,0,1,.653-2.146h-.373c-.84,0-1.493,1.12-1.493,1.12l.187-1.026h-1.773L260,236.171h2.053Z" transform="translate(-231.356 -226.934)" fill="#fff"/>
    <path id="Path_65" data-name="Path 65" d="M349.945,227.2a6.608,6.608,0,0,0-2.239.373l-.28,1.586a5.516,5.516,0,0,1,2.053-.373c.653,0,1.213.093,1.213.653,0,.373-.093.466-.093.466h-.84c-1.586,0-3.359.653-3.359,2.8,0,1.679,1.12,2.053,1.773,2.053a2.8,2.8,0,0,0,1.959-.84l-.093.746h1.679l.746-5.132A2.179,2.179,0,0,0,349.945,227.2Zm.467,4.2c0,.28-.187,1.773-1.306,1.773a.728.728,0,0,1-.746-.746c0-.467.28-1.12,1.679-1.12C350.319,231.4,350.319,231.4,350.412,231.4Z" transform="translate(-307.679 -225.521)" fill="#fff"/>
    <path id="Path_66" data-name="Path 66" d="M396.453,236.078c.56-3.079.653-5.6,1.959-5.132a7.321,7.321,0,0,1,.653-2.146h-.373c-.84,0-1.493,1.12-1.493,1.12l.187-1.026h-1.773l-1.213,7.278h2.053Z" transform="translate(-350.081 -226.934)" fill="#fff"/>
  </g>
  <g id="Group_8" data-name="Group 8" transform="translate(1.679 13.062)">
    <path id="Path_67" data-name="Path 67" d="M180,226.9a1.4,1.4,0,0,0,1.493,1.586,3.551,3.551,0,0,0,1.4-.28l.28-1.586a4.041,4.041,0,0,1-.467.093c-.653,0-.746-.373-.653-.56l.56-3.266h1.026l.28-1.773h-.933l.187-1.12" transform="translate(-160.686 -219.16)" fill="#dce5e5"/>
    <path id="Path_68" data-name="Path 68" d="M218.4,232.909c0,2.612.84,3.266,2.333,3.266a4.844,4.844,0,0,0,1.959-.28l.373-1.773a5.593,5.593,0,0,1-1.959.467c-2.053,0-1.679-1.493-1.679-1.493h3.825a12.1,12.1,0,0,0,.28-1.679,2.528,2.528,0,0,0-2.706-2.706C218.866,228.524,218.4,230.577,218.4,232.909Zm2.333-2.706c1.026,0,1.213,1.213,1.213,1.306H219.52C219.52,231.416,219.706,230.2,220.733,230.2Z" transform="translate(-194.608 -226.844)" fill="#dce5e5"/>
    <path id="Path_69" data-name="Path 69" d="M308.2,221.85l.373-2.053a4.585,4.585,0,0,1-1.586.467c-1.306,0-1.866-1.026-1.866-2.146,0-2.239,1.12-3.452,2.426-3.452a3.116,3.116,0,0,1,1.679.56l.28-1.959a6.561,6.561,0,0,0-2.146-.466c-2.146,0-3.359,1.866-3.359,5.412,0,2.333.187,3.919,2.426,3.919A8.373,8.373,0,0,0,308.2,221.85Z" transform="translate(-270.224 -212.8)" fill="#dce5e5"/>
    <path id="Path_70" data-name="Path 70" d="M87.426,230.666a5.515,5.515,0,0,1,2.053-.373c.653,0,1.213.093,1.213.653,0,.373-.093.467-.093.467h-.84c-1.586,0-3.359.653-3.359,2.8,0,1.679,1.12,2.053,1.773,2.053a2.8,2.8,0,0,0,1.959-.84l-.093.746h1.679l.746-5.132c0-2.146-1.866-2.239-2.612-2.239m1.4,4.012a3.055,3.055,0,0,1-2.239,1.773.728.728,0,0,1-.746-.746c0-.467.28-1.12,1.679-1.12A7.623,7.623,0,0,0,91.252,232.812Z" transform="translate(-78.003 -226.934)" fill="#dce5e5"/>
    <path id="Path_71" data-name="Path 71" d="M136,233.864a7.9,7.9,0,0,0,2.146.187c.467,0,2.8.093,2.8-2.426,0-2.333-2.239-1.866-2.239-2.8,0-.466.373-.653,1.026-.653.28,0,1.306.093,1.306.093l.28-1.679a7.087,7.087,0,0,0-1.773-.187c-1.4,0-1.866.56-1.866,2.426,0,2.146,1.4,1.959,1.4,2.8,0,.56-.653.653-1.12.653" transform="translate(-121.818 -224.814)" fill="#dce5e5"/>
    <path id="Path_72" data-name="Path 72" d="M439.161,217.626a2.587,2.587,0,0,0-1.773-.933c-1.679,0-2.239,2.053-2.239,4.479,0,1.493-.187,3.079,1.4,3.079a2.491,2.491,0,0,0,1.773-.746l-.093.653h1.866l1.4-8.957m-2.426,4.852c0,1.026-.84,2.333-1.866,2.333-.653,0-1.026-.56-1.026-1.493,0-1.493.653-2.426,1.493-2.426A1.426,1.426,0,0,1,439.067,220.052Z" transform="translate(-386.072 -214.92)" fill="#dce5e5"/>
    <path id="Path_73" data-name="Path 73" d="M16.173,223.357l1.12-6.718.187,6.718h1.306l2.426-6.718-1.026,6.718h1.959l1.493-8.957H21.3l-2.612,5.5-.093-5.5H17.572L14.4,223.357Z" transform="translate(-14.4 -214.213)" fill="#dce5e5"/>
    <path id="Path_74" data-name="Path 74" d="M260.8,236.078h1.959c.56-3.079.653-5.6,1.959-5.132a7.322,7.322,0,0,1,.653-2.146H265c-.84,0-1.493,1.12-1.493,1.12l.187-1.026" transform="translate(-232.063 -226.934)" fill="#dce5e5"/>
    <path id="Path_75" data-name="Path 75" d="M347.426,230.666a5.515,5.515,0,0,1,2.053-.373c.653,0,1.213.093,1.213.653,0,.373-.093.467-.093.467h-.84c-1.586,0-3.359.653-3.359,2.8,0,1.679,1.12,2.053,1.773,2.053a2.8,2.8,0,0,0,1.959-.84l-.093.746h1.679l.746-5.132c0-2.146-1.866-2.239-2.613-2.239m1.4,4.012a3.055,3.055,0,0,1-2.239,1.773.728.728,0,0,1-.746-.746c0-.467.28-1.12,1.679-1.12A8.21,8.21,0,0,0,351.252,232.812Z" transform="translate(-307.68 -226.934)" fill="#dce5e5"/>
    <path id="Path_76" data-name="Path 76" d="M395.2,236.078h1.959c.56-3.079.653-5.6,1.959-5.132a7.323,7.323,0,0,1,.653-2.146H399.4c-.84,0-1.493,1.12-1.493,1.12l.187-1.026" transform="translate(-350.788 -226.934)" fill="#dce5e5"/>
  </g>
</svg>
