<svg xmlns="http://www.w3.org/2000/svg" width="14.21" height="14.191" viewBox="0 0 14.21 14.191">
  <g id="password" transform="translate(-2.25 -2.25)">
    <path id="Path_587" data-name="Path 587" d="M11.879,2.25A4.561,4.561,0,0,0,7.318,6.811a4.5,4.5,0,0,0,.2,1.323L2.25,13.4v3.041H5.291l5.266-5.266a4.561,4.561,0,0,0,5.884-3.989A4.445,4.445,0,0,0,15.6,4.145a4.561,4.561,0,0,0-3.725-1.9Zm0,8.109a3.548,3.548,0,0,1-1.014-.152l-.583-.177-.431.431L8.24,12.072l-.714-.7-.714.714.7.7-.806.806-.7-.7-.714.714.7.7-1.12,1.12H3.264V13.82L8.23,8.838l.431-.431-.147-.482a3.618,3.618,0,0,1,1.723-4.277,3.548,3.548,0,0,1,5.19,3.041,3.39,3.39,0,0,1-.552,2.027,3.548,3.548,0,0,1-3,1.642Z" transform="translate(0 0)" fill="#232323"/>
    <path id="Path_588" data-name="Path 588" d="M24.527,10.014A1.014,1.014,0,1,1,23.514,9,1.014,1.014,0,0,1,24.527,10.014Z" transform="translate(-11.127 -3.709)" fill="#232323"/>
  </g>
</svg>
