<svg xmlns="http://www.w3.org/2000/svg" width="14.21" height="14.21" viewBox="0 0 14.21 14.21">
  <path id="phone" d="M14.21,11.223a3.331,3.331,0,0,1-.1.712,4.005,4.005,0,0,1-.212.691,2.707,2.707,0,0,1-1.231,1.07,3.913,3.913,0,0,1-1.877.515,4.028,4.028,0,0,1-.535-.035,4.092,4.092,0,0,1-.58-.126q-.318-.091-.474-.146t-.56-.207q-.4-.152-.495-.182a9.137,9.137,0,0,1-1.766-.838A15.215,15.215,0,0,1,3.714,10.5a15.216,15.216,0,0,1-2.18-2.664A9.152,9.152,0,0,1,.7,6.066q-.03-.091-.182-.495t-.207-.56Q.252,4.855.161,4.537a4.183,4.183,0,0,1-.126-.58A3.936,3.936,0,0,1,0,3.421,3.914,3.914,0,0,1,.515,1.544,2.707,2.707,0,0,1,1.584.313,4.02,4.02,0,0,1,2.276.1,3.327,3.327,0,0,1,2.987,0,.563.563,0,0,1,3.2.03q.182.06.535.767.111.192.3.545t.353.641q.161.288.313.54.03.04.176.252a2.874,2.874,0,0,1,.217.358.652.652,0,0,1,.071.288.837.837,0,0,1-.288.5,4.93,4.93,0,0,1-.626.555,6.09,6.09,0,0,0-.626.535.769.769,0,0,0-.288.464.681.681,0,0,0,.051.227q.051.136.086.207t.141.242q.106.172.116.192A10.592,10.592,0,0,0,5.49,8.72a10.592,10.592,0,0,0,2.372,1.756q.02.01.192.116t.242.141a2.119,2.119,0,0,0,.207.086.694.694,0,0,0,.227.051.769.769,0,0,0,.464-.288,6.09,6.09,0,0,0,.535-.626,4.93,4.93,0,0,1,.555-.626.837.837,0,0,1,.5-.288.659.659,0,0,1,.288.071,2.811,2.811,0,0,1,.358.217q.212.146.252.176.252.152.54.313t.641.353q.353.192.545.3.707.353.767.535a.563.563,0,0,1,.03.212Z" fill="#232323"/>
</svg>
