<svg id="search" xmlns="http://www.w3.org/2000/svg" width="18.353" height="18.352" viewBox="0 0 18.353 18.352">
  <path id="Path_4" data-name="Path 4" d="M23.173,23.171a1.147,1.147,0,0,1,1.623,0l4.416,4.416A1.147,1.147,0,0,1,27.59,29.21l-4.416-4.416a1.147,1.147,0,0,1,0-1.623Z" transform="translate(-11.195 -11.194)" fill="#545454" fill-rule="evenodd"/>
  <path id="Path_5" data-name="Path 5" d="M7.456,13.764A6.309,6.309,0,1,0,1.147,7.456,6.309,6.309,0,0,0,7.456,13.764Zm7.456-6.309A7.456,7.456,0,1,1,7.456,0a7.456,7.456,0,0,1,7.456,7.456Z" fill="#545454" fill-rule="evenodd"/>
</svg>
