<svg id="credit-card-visa" xmlns="http://www.w3.org/2000/svg" width="50.811" height="35.041" viewBox="0 0 50.811 35.041">
  <path id="Path_16" data-name="Path 16" d="M50.811,111.488a3,3,0,0,1-3,3H3a3,3,0,0,1-3-3V82.455a3,3,0,0,1,3-3h44.8a3,3,0,0,1,3,3v29.034Z" transform="translate(0 -79.451)" fill="#fff"/>
  <path id="Path_17" data-name="Path 17" d="M38.753,196.51l-1.193-5.723a1.423,1.423,0,0,0-1.539-1.055h-5.47l-.049.262C34.762,191.026,37.581,193.518,38.753,196.51Z" transform="translate(-27.475 -178.788)" fill="#f79f1a"/>
  <g id="Group_4" data-name="Group 4" transform="translate(0 0)">
    <path id="Path_18" data-name="Path 18" d="M189.24,190.892h-3.534L183.5,203.845h3.528Z" transform="translate(-165.289 -179.833)" fill="#059bbf"/>
    <path id="Path_19" data-name="Path 19" d="M72.734,203.913l5.558-12.932h-3.74l-3.458,8.835-.369-1.334a13.821,13.821,0,0,0-4.889-5.369L69,203.917Z" transform="translate(-59.302 -179.913)" fill="#059bbf"/>
    <path id="Path_20" data-name="Path 20" d="M251.436,197.6c.013-1.471-.931-2.592-2.966-3.519-1.237-.6-1.99-1-1.981-1.6,0-.536.638-1.113,2.021-1.113a6.518,6.518,0,0,1,2.642.5l.319.146.479-2.806a9.153,9.153,0,0,0-3.165-.541c-3.489,0-5.945,1.756-5.967,4.274-.022,1.862,1.756,2.9,3.094,3.52,1.374.633,1.835,1.037,1.826,1.6-.009.868-1.1,1.263-2.11,1.263a7.408,7.408,0,0,1-3.325-.679l-.452-.207-.5,2.9a11.139,11.139,0,0,0,3.932.688C249,202.025,251.41,200.292,251.436,197.6Z" transform="translate(-217.404 -177.821)" fill="#059bbf"/>
    <path id="Path_21" data-name="Path 21" d="M344.836,202.026l4.522,0c.106.451.43,1.942.43,1.942h3.276L350.2,191.027h-2.726a1.757,1.757,0,0,0-1.849,1.073l-5.244,11.872H344.1S344.7,202.376,344.836,202.026Zm2.42-6.273c-.017.035.293-.749.47-1.237l.239,1.117s.674,3.094.816,3.742h-2.93C346.143,198.63,347.256,195.753,347.256,195.753Z" transform="translate(-306.605 -179.954)" fill="#059bbf"/>
    <path id="Path_22" data-name="Path 22" d="M47.807,79.451H3a3,3,0,0,0-3,3v3.117H50.811V82.455A3,3,0,0,0,47.807,79.451Z" transform="translate(0 -79.451)" fill="#059bbf"/>
  </g>
  <path id="Path_23" data-name="Path 23" d="M47.807,376.992H3a3,3,0,0,1-3-3v-3.117H50.811v3.117A3,3,0,0,1,47.807,376.992Z" transform="translate(0 -341.951)" fill="#f79f1a"/>
  <path id="Path_24" data-name="Path 24" d="M2.135,111.488V82.455a3,3,0,0,1,3-3H3a3,3,0,0,0-3,3v29.034a3,3,0,0,0,3,3H5.139A3,3,0,0,1,2.135,111.488Z" transform="translate(0 -79.451)" fill="#202121" opacity="0.15"/>
</svg>
